PathFileType	4	(X/Y/Z)	Walk2.trc
DataRate	CameraRate	NumFrames	NumMarkers	Units	OrigDataRate	OrigDataStartFrame	OrigNumFrames
200.000000	200.000000	7	59	mm	200.000000	349	389
Frame#	Times		LFHD		RFHD		LBHD		RBHD		C7		T10		CLAV		STRN		RBack		LASI		RASI		LPSI		RPSI		RACR1		RUA1		RElbow		RFA1		RWRR		RWRU		RCAR		LACR1		LUA1		LElbow		LElbowM		LFA1		LWRR		LWRU		LCAR		RTH1		RTH3		RTH2		RTH4		RLFC		RTB1		RTB3		RTB2		RTB4		RLMAL		RMMAL		RCAL		RMT1		RMT5		RToe		LTH1		LTH3		LTH2		LTH4		LLFC		LTB1		LTB3		LTB2		LTB4		LLMAL		LMMAL		LCAL		LMT1		LMT5		LToe		RElbowM
			X1	Y1	Z1	X2	Y2	Z2	X3	Y3	Z3	X4	Y4	Z4	X5	Y5	Z5	X6	Y6	Z6	X7	Y7	Z7	X8	Y8	Z8	X9	Y9	Z9	X10	Y10	Z10	X11	Y11	Z11	X12	Y12	Z12	X13	Y13	Z13	X14	Y14	Z14	X15	Y15	Z15	X16	Y16	Z16	X17	Y17	Z17	X18	Y18	Z18	X19	Y19	Z19	X20	Y20	Z20	X21	Y21	Z21	X22	Y22	Z22	X23	Y23	Z23	X24	Y24	Z24	X25	Y25	Z25	X26	Y26	Z26	X27	Y27	Z27	X28	Y28	Z28	X29	Y29	Z29	X30	Y30	Z30	X31	Y31	Z31	X32	Y32	Z32	X33	Y33	Z33	X34	Y34	Z34	X35	Y35	Z35	X36	Y36	Z36	X37	Y37	Z37	X38	Y38	Z38	X39	Y39	Z39	X40	Y40	Z40	X41	Y41	Z41	X42	Y42	Z42	X43	Y43	Z43	X44	Y44	Z44	X45	Y45	Z45	X46	Y46	Z46	X47	Y47	Z47	X48	Y48	Z48	X49	Y49	Z49	X50	Y50	Z50	X51	Y51	Z51	X52	Y52	Z52	X53	Y53	Z53	X54	Y54	Z54	X55	Y55	Z55	X56	Y56	Z56	X57	Y57	Z57	X58	Y58	Z58	X59	Y59	Z59

349	1.745	949.51	1605	-93.407	943.61	1609.7	0.98672	806.15	1537.7	-127.57	793.13	1551.9	12.005	770.53	1423.5	-39.382	702.58	1155.2	-34.483	908.6	1346.9	-41.845	971.07	1244.3	-31.036	719.32	1331.4	69.383	973.86	967.77	-157.49	950.95	984.57	131.7	716.02	970.35	-70.902	713.09	971.23	18.509	845.57	1389	112.28	823.57	1210.8	215.71	772.08	1091.6	245.95	780.93	945.82	266.02	853.75	846.36	220.4	805.23	839.56	272.33	867.31	792.87	266.67	844.4	1374.2	-199.08	846.38	1190.3	-288.01	823.83	1062.8	-313.54	785.03	1034.5	-244.94	845.21	927.46	-327.18	928.81	828.88	-278.4	878.3	814.15	-330.07	947.74	784.52	-320.66	900.17	745.45	204.3	963.4	587.58	172.36	985.49	689.63	186.53	930.92	665.29	186.74	992.5	510.76	154	996.05	348.44	96.951	893.76	209.53	89.225	916.88	296.22	143.31	945.29	277.9	89.984	797.73	131.33	104.85	830.2	126.25	26.698	731.29	123.25	56.979	896.06	54.24	62.785	855.11	58.401	127.35	945.35	41.626	103.02	878.66	760.96	-233.98	868.88	601.64	-172.82	928.62	688.3	-182.61	873.02	682.99	-198.95	862.57	480.41	-136.52	895.56	337.03	-55.527	865.16	167.66	-54.706	859.17	253.47	-111.44	879.3	251.86	-53.509	816.98	59.05	-77.272	828.13	63.201	6.0579	750.99	31.62	-44.135	900.03	24.564	-90.668	929.15	31.749	-10.798	997.16	28.514	-36.243	757.05	1059.5	152.74
350	1.75	954.76	1604.9	-93.281	948.79	1609.6	1.1132	811.52	1537.5	-127.57	798.39	1551.6	12.003	775.87	1423.4	-39.488	707.57	1155.2	-34.825	913.82	1346.7	-41.819	976.13	1244.1	-30.837	724.38	1331.4	69.061	978.18	967.53	-158.4	956.28	984.47	131.16	720.69	970.19	-70.494	717.95	971.11	18.955	850.64	1388.7	112.27	827.87	1210.5	215.51	775.86	1091.5	245.49	784.26	945.64	265.55	857.1	846.01	220.26	808.27	839.27	271.91	870.4	792.6	266.82	849.9	1374.3	-199.08	852.83	1190.6	-288.37	831.4	1063.1	-314.24	792.48	1034.3	-245.91	854.31	927.86	-327.75	938.92	830.3	-278.59	888.69	814.87	-330.43	958.58	786.32	-320.87	905.89	745.65	204.36	970.76	588.48	171.9	991.91	690.67	186.65	937.51	665.85	186.6	1000.4	511.92	153.31	1007	349.26	96.177	908.8	207.52	88.748	929.46	294.78	142.75	958.26	277.31	89.335	815	126.68	104.58	848.98	120.85	26.419	748.79	116.46	56.636	915.74	52.709	62.941	874.57	55.976	127.7	965.49	41.968	103.41	882.16	760.71	-234.16	870.79	601.61	-172.75	931.38	687.68	-182.75	875.67	682.86	-198.93	863.92	480.33	-136.63	896.46	336.81	-55.559	865.56	167.56	-54.705	859.86	253.37	-111.46	879.97	251.71	-53.527	817.04	59.108	-77.243	828.25	63.121	6.1852	750.98	31.76	-44.101	900.09	24.524	-90.646	929.24	31.675	-10.75	997.25	28.416	-36.199	761.21	1059.4	152.21
351	1.755	960.02	1604.9	-93.132	953.97	1609.5	1.2622	816.88	1537.2	-127.55	803.65	1551.2	12.018	781.2	1423.3	-39.583	712.55	1155.2	-35.149	919.03	1346.5	-41.795	981.18	1243.7	-30.667	729.43	1331.3	68.748	982.47	967.22	-159.3	961.59	984.3	130.63	725.35	969.98	-70.043	722.83	970.94	19.443	855.71	1388.5	112.28	832.16	1210.1	215.32	779.66	1091.3	245.01	787.61	945.41	265.06	860.54	845.64	220.14	811.32	838.92	271.46	873.52	792.3	267.01	855.39	1374.3	-199.06	859.31	1190.9	-288.7	838.95	1063.3	-314.92	799.92	1034.1	-246.87	863.4	928.23	-328.27	949	831.7	-278.75	899.06	815.59	-330.75	969.37	788.1	-321.05	911.66	745.83	204.42	977.98	589.32	171.4	998.29	691.63	186.72	944.05	666.36	186.44	1008	512.97	152.59	1017.7	350.06	95.389	923.92	205.53	88.29	942.03	293.33	142.19	971.19	276.71	88.691	832.46	122.04	104.32	868.22	115.18	26.168	766.58	109.69	56.31	935.52	51.302	63.151	894.14	53.569	128.01	985.64	42.425	103.82	885.59	760.44	-234.36	872.73	601.56	-172.67	934.12	687.07	-182.91	878.32	682.72	-198.91	865.32	480.26	-136.73	897.4	336.59	-55.593	865.98	167.45	-54.702	860.57	253.27	-111.49	880.65	251.55	-53.545	817.1	59.166	-77.207	828.33	63.132	6.2904	750.96	31.92	-44.065	900.14	24.487	-90.63	929.33	31.592	-10.696	997.37	28.292	-36.151	765.41	1059.3	151.68
352	1.76	965.28	1604.7	-92.963	959.16	1609.3	1.4332	822.25	1537	-127.51	808.92	1550.9	12.05	786.54	1423.2	-39.664	717.52	1155.1	-35.453	924.24	1346.2	-41.773	986.22	1243.4	-30.529	734.49	1331.2	68.448	986.75	966.87	-160.19	966.89	984.07	130.13	730	969.73	-69.556	727.71	970.72	19.969	860.79	1388.1	112.29	836.45	1209.8	215.14	783.47	1091	244.53	790.96	945.12	264.55	864.06	845.24	220.05	814.38	838.52	270.99	876.66	791.96	267.21	860.88	1374.3	-199.03	865.82	1191.1	-289.01	846.5	1063.4	-315.57	807.37	1033.8	-247.8	872.47	928.58	-328.77	959.04	833.09	-278.89	909.39	816.31	-331.03	980.1	789.86	-321.18	917.47	745.99	204.48	985.05	590.08	170.85	1004.6	692.47	186.71	950.53	666.81	186.25	1015.4	513.89	151.84	1028.4	350.83	94.59	939.08	203.58	87.85	954.56	291.88	141.63	984.08	276.13	88.056	850.11	117.46	104.08	887.93	109.29	25.95	784.67	102.97	56	955.39	50.045	63.424	913.83	51.197	128.27	1005.8	43.012	104.25	888.98	760.15	-234.56	874.7	601.51	-172.58	936.85	686.46	-183.06	880.98	682.58	-198.88	866.76	480.18	-136.83	898.38	336.35	-55.632	866.41	167.34	-54.697	861.29	253.16	-111.51	881.36	251.39	-53.567	817.17	59.224	-77.162	828.38	63.233	6.3676	750.94	32.095	-44.025	900.18	24.455	-90.622	929.43	31.503	-10.637	997.5	28.144	-36.103	769.65	1059.1	151.15
353	1.765	970.55	1604.6	-92.772	964.36	1609.1	1.6254	827.63	1536.7	-127.46	814.18	1550.5	12.098	791.86	1423	-39.733	722.47	1155	-35.737	929.45	1345.9	-41.753	991.25	1243	-30.424	739.55	1331	68.163	991.01	966.46	-161.06	972.17	983.78	129.66	734.66	969.44	-69.035	732.61	970.45	20.526	865.87	1387.8	112.3	840.75	1209.3	214.96	787.29	1090.7	244.05	794.34	944.79	264.01	867.66	844.81	219.98	817.46	838.08	270.5	879.83	791.58	267.44	866.36	1374.2	-198.99	872.34	1191.3	-289.29	854.04	1063.6	-316.19	814.83	1033.5	-248.72	881.52	928.9	-329.23	969.05	834.48	-279.01	919.68	817.01	-331.28	990.77	791.58	-321.27	923.33	746.13	204.55	991.96	590.75	170.28	1010.9	693.21	186.64	956.95	667.21	186.05	1022.6	514.69	151.06	1038.9	351.59	93.786	954.29	201.67	87.429	967.06	290.44	141.07	996.93	275.55	87.431	867.93	112.95	103.85	908.07	103.22	25.773	803.04	96.337	55.704	975.33	48.961	63.763	933.62	48.891	128.48	1025.9	43.746	104.71	892.31	759.84	-234.76	876.71	601.44	-172.5	939.57	685.84	-183.23	883.64	682.42	-198.87	868.24	480.09	-136.92	899.41	336.1	-55.678	866.85	167.22	-54.693	862.03	253.06	-111.52	882.1	251.21	-53.593	817.24	59.28	-77.107	828.39	63.417	6.4155	750.92	32.284	-43.978	900.2	24.43	-90.624	929.52	31.409	-10.575	997.65	27.974	-36.057	773.93	1058.8	150.62
354	1.77	975.83	1604.4	-92.562	969.55	1608.8	1.8383	833	1536.3	-127.4	819.45	1550	12.161	797.18	1422.8	-39.787	727.42	1154.9	-36	934.66	1345.6	-41.735	996.28	1242.5	-30.352	744.61	1330.8	67.895	995.27	966	-161.91	977.45	983.44	129.22	739.33	969.12	-68.484	737.52	970.15	21.109	870.96	1387.4	112.33	845.05	1208.9	214.8	791.14	1090.4	243.56	797.73	944.42	263.45	871.33	844.35	219.93	820.57	837.58	269.99	883.02	791.16	267.68	871.83	1374.1	-198.95	878.9	1191.4	-289.54	861.59	1063.6	-316.78	822.29	1033.2	-249.6	890.55	929.2	-329.67	979.01	835.84	-279.09	929.93	817.71	-331.49	1001.4	793.28	-321.31	929.23	746.23	204.62	998.72	591.33	169.68	1017.2	693.82	186.5	963.31	667.55	185.82	1029.6	515.34	150.26	1049.2	352.32	92.982	969.53	199.84	87.023	979.5	289.03	140.51	1009.7	275.01	86.821	885.9	108.54	103.64	928.61	97.032	25.644	821.68	89.829	55.418	995.32	48.069	64.164	953.48	46.689	128.65	1046	44.645	105.21	895.61	759.52	-234.98	878.76	601.36	-172.4	942.3	685.22	-183.41	886.31	682.25	-198.86	869.77	479.99	-137.01	900.49	335.84	-55.733	867.31	167.09	-54.691	862.79	252.94	-111.54	882.86	251.02	-53.624	817.33	59.336	-77.043	828.38	63.663	6.4378	750.9	32.483	-43.924	900.22	24.413	-90.636	929.61	31.315	-10.513	997.82	27.786	-36.018	778.26	1058.6	150.09
355	1.775	981.11	1604.1	-92.333	974.76	1608.5	2.0711	838.38	1535.9	-127.32	824.72	1549.5	12.239	802.49	1422.5	-39.827	732.36	1154.7	-36.239	939.87	1345.2	-41.719	1001.3	1242	-30.316	749.67	1330.6	67.647	999.53	965.48	-162.72	982.71	983.05	128.82	744	968.77	-67.909	742.45	969.81	21.714	876.05	1387	112.36	849.37	1208.4	214.64	795.02	1090	243.08	801.15	943.99	262.86	875.04	843.85	219.9	823.71	837.05	269.46	886.24	790.71	267.94	877.29	1373.9	-198.89	885.48	1191.5	-289.76	869.13	1063.7	-317.34	829.75	1032.8	-250.46	899.56	929.48	-330.07	988.92	837.19	-279.15	940.14	818.4	-331.67	1011.9	794.94	-321.32	935.17	746.31	204.7	1005.3	591.81	169.04	1023.4	694.31	186.29	969.59	667.82	185.57	1036.3	515.85	149.45	1059.5	353.04	92.184	984.79	198.09	86.631	991.87	287.65	139.96	1022.4	274.5	86.229	904.02	104.28	103.43	949.46	90.825	25.572	840.57	83.483	55.136	1015.4	47.386	64.618	973.42	44.633	128.81	1066.1	45.723	105.73	898.87	759.17	-235.2	880.88	601.27	-172.31	945.04	684.61	-183.58	889.02	682.05	-198.85	871.36	479.88	-137.08	901.63	335.57	-55.796	867.78	166.96	-54.69	863.55	252.83	-111.55	883.66	250.83	-53.661	817.42	59.392	-76.968	828.36	63.949	6.4417	750.88	32.689	-43.861	900.22	24.405	-90.657	929.69	31.227	-10.451	998.01	27.583	-35.987	782.63	1058.2	149.56
